{"title":"Thunderbirds Are Go - S01E05 Firelash AVC AAC {OJ}","uid":11876059,"size":183536285,"categoryP":"video","categoryS":"tv_shows","magnet":"?xt=urn:btih:0e163abc8427867a6ee949719b836ff881e7ce5c&amp;dn=Thunderbirds+Are+Go+-+S01E05+Firelash+AVC+AAC+%7BOJ%7D&amp;tr=udp%3A%2F%2Ftracker.openbittorrent.com%3A80&amp;tr=udp%3A%2F%2Fopen.demonii.com%3A1337&amp;tr=udp%3A%2F%2Ftracker.coppersurfer.tk%3A6969&amp;tr=udp%3A%2F%2Fexodus.desync.com%3A6969","seeders":1,"leechers":0,"uploader":"despo1ler","files":1,"time":1430563099,"description":"[center][b]Thunderbirds Are Go - S01E05 Firelash AVC AAC {OJ}[/b]\n\n\n\n[b]Information: [/b]\n------------------------------------------------------------------------------\n\nKayo is aboard an airliner invented by Brains, unaware that its controls have been tampered with. Kayo then realises that the plane is flying in the wrong direction.\n\n------------------------------------------------------------------------------\n\n[b]Links and Screenshots :[/b]\n\n[b]Thumbnails [/b]\n\n\n------------------------------------------------------------------------------\n[/center]\n\n[b]Technical Specs :\n\nGeneral\n\nFormat : MPEG-4\nFormat profile : Base Media\nCodec ID : isom\nFile size : 175 MiB\nDuration : 22mn 2s\nOverall bit rate mode : Variable\nOverall bit rate : 1 110 Kbps\nEncoded date : UTC 2015-04-25 09:43:27\nTagged date : UTC 2015-04-25 09:43:27\n\nVideo\nID : 1\nFormat : AVC\nFormat/Info : Advanced Video Codec\nFormat profile : &lt;a class=&quot;__cf_email__&quot; href=&quot;/cdn-cgi/l/email-protection&quot; data-cfemail=&quot;e8a0818f80a8a4dbc6d8&quot;&gt;[email&amp;#160;protected]&lt;/a&gt;&lt;script cf-hash='f9e31' type=&quot;text/javascript&quot;&gt;\n/* &lt;![CDATA[ */!function(){try{var t=&quot;currentScript&quot;in document?document.currentScript:function(){for(var t=document.getElementsByTagName(&quot;script&quot;),e=t.length;e--;)if(t[e].getAttribute(&quot;cf-hash&quot;))return t[e]}();if(t&amp;&amp;t.previousSibling){var e,r,n,i,c=t.previousSibling,a=c.getAttribute(&quot;data-cfemail&quot;);if(a){for(e=&quot;&quot;,r=parseInt(a.substr(0,2),16),n=2;a.length-n;n+=2)i=parseInt(a.substr(n,2),16)^r,e+=String.fromCharCode(i);e=document.createTextNode(e),c.parentNode.replaceChild(e,c)}}}catch(u){}}();/* ]]&gt; */&lt;/script&gt;\nFormat settings, CABAC : Yes\nFormat settings, ReFrames : 4 frames\nCodec ID : avc1\nCodec ID/Info : Advanced Video Coding\nDuration : 22mn 2s\nBit rate : 978 Kbps\nMaximum bit rate : 5 263 Kbps\nWidth : 688 pixels\nHeight : 384 pixels\nDisplay aspect ratio : 16:9\nOriginal display aspect ratio : 16:9\nFrame rate mode : Constant\nFrame rate : 25.000 fps\nColor space : YUV\nChroma subsampling : 4:2:0\nBit depth : 8 bits\nScan type : Progressive\nBits/(Pixel*Frame) : 0.148\nStream size : 154 MiB (88%)\nWriting library : x264 core 146 r2538 121396c\nEncoding settings : cabac=1 / ref=3 / deblock=1:0:0 / analyse=0x3:0x113 / me=hex / subme=7 / psy=1 / psy_rd=1.00:0.00 / mixed_ref=1 / me_range=16 / chroma_me=1 / \n\ntrellis=1 / 8x8dct=1 / cqm=0 / deadzone=21,11 / fast_pskip=1 / chroma_qp_offset=-2 / threads=4 / lookahead_threads=1 / sliced_threads=0 / nr=0 / decimate=1 / interlaced=0 / \n\nbluray_compat=0 / constrained_intra=0 / bframes=3 / b_pyramid=2 / b_adapt=1 / b_bias=0 / direct=1 / weightb=1 / open_gop=0 / weightp=2 / keyint=250 / keyint_min=25 / \n\nscenecut=40 / intra_refresh=0 / rc_lookahead=40 / rc=2pass / mbtree=1 / bitrate=978 / ratetol=1.0 / qcomp=0.60 / qpmin=0 / qpmax=69 / qpstep=4 / cplxblur=20.0 / qblur=0.5 / \n\nip_ratio=1.40 / aq=1:1.00\nEncoded date : UTC 2015-04-25 09:43:27\nTagged date : UTC 2015-04-25 09:45:02\n\nAudio\nID : 2\nFormat : AAC\nFormat/Info : Advanced Audio Codec\nFormat profile : LC\nCodec ID : 40\nDuration : 22mn 2s\nBit rate mode : Variable\nBit rate : 128 Kbps\nMaximum bit rate : 135 Kbps\nChannel(s) : 2 channels\nChannel positions : Front: L R\nSampling rate : 48.0 KHz\nCompression mode : Lossy\nStream size : 20.2 MiB (12%)\nEncoded date : UTC 2015-04-25 09:12:33\nTagged date : UTC 2015-04-25 09:45:02\n\n\n\n\n[/b]","torrent":{"xt":"urn:btih:0e163abc8427867a6ee949719b836ff881e7ce5c","amp;dn":"Thunderbirds+Are+Go+-+S01E05+Firelash+AVC+AAC+%7BOJ%7D","amp;tr":["udp%3A%2F%2Ftracker.openbittorrent.com%3A80","udp%3A%2F%2Fopen.demonii.com%3A1337","udp%3A%2F%2Ftracker.coppersurfer.tk%3A6969","udp%3A%2F%2Fexodus.desync.com%3A6969"],"infoHash":"0e163abc8427867a6ee949719b836ff881e7ce5c","infoHashBuffer":{"type":"Buffer","data":[14,22,58,188,132,39,134,122,110,233,73,113,155,131,111,248,129,231,206,92]},"announce":[],"urlList":[]}}